; NON-PLATED HOLES START AT T1
; THROUGH (PLATED) HOLES START AT T100
M48
INCH
T100C0.038000
T101C0.036000
T102C0.015748
%
T100
X003853Y000768
X001853Y002768
X004853Y000768
X003853Y002768
X004853Y002768
X005853Y002768
X006853Y002768
X002853Y000768
X000853Y002768
T101
X006853Y015762
X000853Y017762
X006853Y008762
X006853Y012762
X000853Y014762
X006853Y005762
X000853Y007762
X000853Y011762
X006853Y017762
X000853Y019762
X006853Y014762
X000853Y016762
X006853Y007762
X000853Y009762
X006853Y011762
X000853Y013762
X000853Y006762
X000853Y010762
X006853Y019762
X006853Y016762
X000853Y018762
X006853Y009762
X006853Y013762
X000853Y015762
X006853Y006762
X000853Y008762
X006853Y010762
X000853Y012762
X000853Y005762
X006853Y018762
T102
X005160Y004471
T00
M30
