G04 MADE WITH FRITZING*
G04 WWW.FRITZING.ORG*
G04 DOUBLE SIDED*
G04 HOLES PLATED*
G04 CONTOUR ON CENTER OF CONTOUR VECTOR*
%ASAXBY*%
%FSLAX23Y23*%
%MOIN*%
%OFA0B0*%
%SFA1.0B1.0*%
%ADD10C,0.070000*%
%ADD11C,0.078000*%
%ADD12C,0.039370*%
%ADD13R,0.069972X0.070000*%
%ADD14R,0.078000X0.078000*%
%ADD15C,0.024000*%
%LNCOPPER1*%
G90*
G70*
G54D10*
X685Y576D03*
X685Y676D03*
X685Y776D03*
X685Y876D03*
X685Y976D03*
X685Y1076D03*
X685Y1176D03*
X685Y1276D03*
X685Y1376D03*
X685Y1476D03*
X685Y1576D03*
X685Y1676D03*
X685Y1776D03*
X685Y1876D03*
X685Y1976D03*
X85Y576D03*
X85Y676D03*
X85Y776D03*
X85Y876D03*
X85Y976D03*
X85Y1076D03*
X85Y1176D03*
X85Y1276D03*
X85Y1376D03*
X85Y1476D03*
X85Y1576D03*
X85Y1676D03*
X85Y1776D03*
X85Y1876D03*
X85Y1976D03*
G54D11*
X185Y277D03*
X85Y277D03*
X485Y77D03*
X385Y77D03*
X285Y77D03*
X685Y277D03*
X585Y277D03*
X485Y277D03*
X385Y277D03*
G54D12*
X516Y447D03*
G54D13*
X685Y576D03*
G54D14*
X185Y277D03*
X485Y77D03*
G54D15*
X85Y307D02*
X85Y547D01*
D02*
X285Y107D02*
X286Y375D01*
D02*
X286Y375D02*
X612Y399D01*
X612Y399D02*
X612Y1023D01*
X612Y1023D02*
X662Y1059D01*
D02*
X106Y655D02*
X144Y615D01*
X144Y615D02*
X182Y307D01*
D02*
X391Y107D02*
X396Y135D01*
X396Y135D02*
X684Y231D01*
X684Y231D02*
X684Y247D01*
D02*
X106Y856D02*
X503Y461D01*
G04 End of Copper1*
M02*